<mxfile host="Electron" modified="2023-11-09T15:03:48.010Z" agent="Mozilla/5.0 (Windows NT 10.0; Win64; x64) AppleWebKit/537.36 (KHTML, like Gecko) draw.io/21.5.1 Chrome/112.0.5615.204 Electron/24.6.0 Safari/537.36" etag="8d7VRTzGfbTu-0mI277w" version="21.5.1" type="device">
  <diagram id="C5RBs43oDa-KdzZeNtuy" name="Page-1">
    <mxGraphModel dx="1418" dy="828" grid="1" gridSize="10" guides="1" tooltips="1" connect="1" arrows="1" fold="1" page="1" pageScale="1" pageWidth="827" pageHeight="1169" math="0" shadow="0">
      <root>
        <mxCell id="WIyWlLk6GJQsqaUBKTNV-0" />
        <mxCell id="WIyWlLk6GJQsqaUBKTNV-1" parent="WIyWlLk6GJQsqaUBKTNV-0" />
        <mxCell id="hGttFpOLu3yiEl4_X7pO-16" value="" style="edgeStyle=orthogonalEdgeStyle;rounded=0;orthogonalLoop=1;jettySize=auto;html=1;" edge="1" parent="WIyWlLk6GJQsqaUBKTNV-1" source="hGttFpOLu3yiEl4_X7pO-0" target="hGttFpOLu3yiEl4_X7pO-15">
          <mxGeometry relative="1" as="geometry" />
        </mxCell>
        <mxCell id="hGttFpOLu3yiEl4_X7pO-0" value="&lt;font style=&quot;font-size: 16px;&quot;&gt;start&lt;/font&gt;" style="ellipse;whiteSpace=wrap;html=1;" vertex="1" parent="WIyWlLk6GJQsqaUBKTNV-1">
          <mxGeometry x="275" y="100" width="121" height="40" as="geometry" />
        </mxCell>
        <mxCell id="hGttFpOLu3yiEl4_X7pO-6" value="" style="edgeStyle=orthogonalEdgeStyle;rounded=0;orthogonalLoop=1;jettySize=auto;html=1;" edge="1" parent="WIyWlLk6GJQsqaUBKTNV-1" source="hGttFpOLu3yiEl4_X7pO-3">
          <mxGeometry relative="1" as="geometry">
            <mxPoint x="335" y="300" as="targetPoint" />
          </mxGeometry>
        </mxCell>
        <mxCell id="hGttFpOLu3yiEl4_X7pO-3" value="Создаём второй пустой массив(array2)&lt;br&gt;x = 0,i = 0" style="whiteSpace=wrap;html=1;" vertex="1" parent="WIyWlLk6GJQsqaUBKTNV-1">
          <mxGeometry x="260" y="240" width="150" height="40" as="geometry" />
        </mxCell>
        <mxCell id="hGttFpOLu3yiEl4_X7pO-23" value="" style="edgeStyle=orthogonalEdgeStyle;rounded=0;orthogonalLoop=1;jettySize=auto;html=1;" edge="1" parent="WIyWlLk6GJQsqaUBKTNV-1" source="hGttFpOLu3yiEl4_X7pO-9" target="hGttFpOLu3yiEl4_X7pO-22">
          <mxGeometry relative="1" as="geometry" />
        </mxCell>
        <mxCell id="hGttFpOLu3yiEl4_X7pO-24" value="да" style="edgeLabel;html=1;align=center;verticalAlign=middle;resizable=0;points=[];" vertex="1" connectable="0" parent="hGttFpOLu3yiEl4_X7pO-23">
          <mxGeometry x="0.44" y="-1" relative="1" as="geometry">
            <mxPoint as="offset" />
          </mxGeometry>
        </mxCell>
        <mxCell id="hGttFpOLu3yiEl4_X7pO-36" value="" style="edgeStyle=orthogonalEdgeStyle;rounded=0;orthogonalLoop=1;jettySize=auto;html=1;" edge="1" parent="WIyWlLk6GJQsqaUBKTNV-1" source="hGttFpOLu3yiEl4_X7pO-9" target="hGttFpOLu3yiEl4_X7pO-35">
          <mxGeometry relative="1" as="geometry" />
        </mxCell>
        <mxCell id="hGttFpOLu3yiEl4_X7pO-37" value="нет" style="edgeLabel;html=1;align=center;verticalAlign=middle;resizable=0;points=[];" vertex="1" connectable="0" parent="hGttFpOLu3yiEl4_X7pO-36">
          <mxGeometry x="-0.3667" y="-2" relative="1" as="geometry">
            <mxPoint as="offset" />
          </mxGeometry>
        </mxCell>
        <mxCell id="hGttFpOLu3yiEl4_X7pO-9" value="&lt;br&gt;i &amp;lt; длинны array1" style="rhombus;whiteSpace=wrap;html=1;" vertex="1" parent="WIyWlLk6GJQsqaUBKTNV-1">
          <mxGeometry x="260" y="300" width="150" height="80" as="geometry" />
        </mxCell>
        <mxCell id="hGttFpOLu3yiEl4_X7pO-21" value="" style="edgeStyle=orthogonalEdgeStyle;rounded=0;orthogonalLoop=1;jettySize=auto;html=1;entryX=0.5;entryY=0;entryDx=0;entryDy=0;" edge="1" parent="WIyWlLk6GJQsqaUBKTNV-1" source="hGttFpOLu3yiEl4_X7pO-15" target="hGttFpOLu3yiEl4_X7pO-3">
          <mxGeometry relative="1" as="geometry" />
        </mxCell>
        <mxCell id="hGttFpOLu3yiEl4_X7pO-15" value="Создает и заполняем первый массив(array1)" style="rounded=0;whiteSpace=wrap;html=1;" vertex="1" parent="WIyWlLk6GJQsqaUBKTNV-1">
          <mxGeometry x="275" y="160" width="120" height="50" as="geometry" />
        </mxCell>
        <mxCell id="hGttFpOLu3yiEl4_X7pO-20" style="edgeStyle=orthogonalEdgeStyle;rounded=0;orthogonalLoop=1;jettySize=auto;html=1;exitX=0.5;exitY=1;exitDx=0;exitDy=0;" edge="1" parent="WIyWlLk6GJQsqaUBKTNV-1" source="hGttFpOLu3yiEl4_X7pO-15" target="hGttFpOLu3yiEl4_X7pO-15">
          <mxGeometry relative="1" as="geometry" />
        </mxCell>
        <mxCell id="hGttFpOLu3yiEl4_X7pO-26" value="" style="edgeStyle=orthogonalEdgeStyle;rounded=0;orthogonalLoop=1;jettySize=auto;html=1;" edge="1" parent="WIyWlLk6GJQsqaUBKTNV-1" source="hGttFpOLu3yiEl4_X7pO-22" target="hGttFpOLu3yiEl4_X7pO-25">
          <mxGeometry relative="1" as="geometry" />
        </mxCell>
        <mxCell id="hGttFpOLu3yiEl4_X7pO-34" value="да" style="edgeLabel;html=1;align=center;verticalAlign=middle;resizable=0;points=[];" vertex="1" connectable="0" parent="hGttFpOLu3yiEl4_X7pO-26">
          <mxGeometry x="0.24" y="3" relative="1" as="geometry">
            <mxPoint as="offset" />
          </mxGeometry>
        </mxCell>
        <mxCell id="hGttFpOLu3yiEl4_X7pO-30" value="" style="edgeStyle=orthogonalEdgeStyle;rounded=0;orthogonalLoop=1;jettySize=auto;html=1;" edge="1" parent="WIyWlLk6GJQsqaUBKTNV-1" source="hGttFpOLu3yiEl4_X7pO-22" target="hGttFpOLu3yiEl4_X7pO-29">
          <mxGeometry relative="1" as="geometry" />
        </mxCell>
        <mxCell id="hGttFpOLu3yiEl4_X7pO-32" value="нет" style="edgeLabel;html=1;align=center;verticalAlign=middle;resizable=0;points=[];" vertex="1" connectable="0" parent="hGttFpOLu3yiEl4_X7pO-30">
          <mxGeometry x="0.7667" y="1" relative="1" as="geometry">
            <mxPoint x="14" y="-11" as="offset" />
          </mxGeometry>
        </mxCell>
        <mxCell id="hGttFpOLu3yiEl4_X7pO-22" value="длинна&amp;nbsp;&lt;br&gt;&amp;nbsp;array1[i] &amp;lt;= 3" style="rhombus;whiteSpace=wrap;html=1;" vertex="1" parent="WIyWlLk6GJQsqaUBKTNV-1">
          <mxGeometry x="260" y="410" width="150" height="80" as="geometry" />
        </mxCell>
        <mxCell id="hGttFpOLu3yiEl4_X7pO-31" style="edgeStyle=orthogonalEdgeStyle;rounded=0;orthogonalLoop=1;jettySize=auto;html=1;entryX=0.5;entryY=1;entryDx=0;entryDy=0;" edge="1" parent="WIyWlLk6GJQsqaUBKTNV-1" source="hGttFpOLu3yiEl4_X7pO-25" target="hGttFpOLu3yiEl4_X7pO-29">
          <mxGeometry relative="1" as="geometry" />
        </mxCell>
        <mxCell id="hGttFpOLu3yiEl4_X7pO-25" value="array2[x] = array[i]&lt;br&gt;x +=1" style="whiteSpace=wrap;html=1;" vertex="1" parent="WIyWlLk6GJQsqaUBKTNV-1">
          <mxGeometry x="275" y="520" width="120" height="60" as="geometry" />
        </mxCell>
        <mxCell id="hGttFpOLu3yiEl4_X7pO-33" style="edgeStyle=orthogonalEdgeStyle;rounded=0;orthogonalLoop=1;jettySize=auto;html=1;entryX=0;entryY=0.5;entryDx=0;entryDy=0;" edge="1" parent="WIyWlLk6GJQsqaUBKTNV-1" source="hGttFpOLu3yiEl4_X7pO-29" target="hGttFpOLu3yiEl4_X7pO-9">
          <mxGeometry relative="1" as="geometry">
            <Array as="points">
              <mxPoint x="170" y="340" />
            </Array>
          </mxGeometry>
        </mxCell>
        <mxCell id="hGttFpOLu3yiEl4_X7pO-29" value="i += 1" style="whiteSpace=wrap;html=1;" vertex="1" parent="WIyWlLk6GJQsqaUBKTNV-1">
          <mxGeometry x="110" y="420" width="120" height="60" as="geometry" />
        </mxCell>
        <mxCell id="hGttFpOLu3yiEl4_X7pO-39" value="" style="edgeStyle=orthogonalEdgeStyle;rounded=0;orthogonalLoop=1;jettySize=auto;html=1;" edge="1" parent="WIyWlLk6GJQsqaUBKTNV-1" source="hGttFpOLu3yiEl4_X7pO-35" target="hGttFpOLu3yiEl4_X7pO-38">
          <mxGeometry relative="1" as="geometry" />
        </mxCell>
        <mxCell id="hGttFpOLu3yiEl4_X7pO-35" value="вывод array2" style="whiteSpace=wrap;html=1;" vertex="1" parent="WIyWlLk6GJQsqaUBKTNV-1">
          <mxGeometry x="470" y="310" width="120" height="60" as="geometry" />
        </mxCell>
        <mxCell id="hGttFpOLu3yiEl4_X7pO-38" value="&lt;span style=&quot;font-size: 16px;&quot;&gt;end&lt;/span&gt;" style="ellipse;whiteSpace=wrap;html=1;" vertex="1" parent="WIyWlLk6GJQsqaUBKTNV-1">
          <mxGeometry x="620" y="320" width="121" height="40" as="geometry" />
        </mxCell>
      </root>
    </mxGraphModel>
  </diagram>
</mxfile>
